<svg xmlns="http://www.w3.org/2000/svg" viewBox="0 0 32 40" x="0px" y="0px"><g data-name="Check List"><path d="M13.54,8a1,1,0,0,1,1-1H26.42a1,1,0,0,1,0,2H14.54A1,1,0,0,1,13.54,8ZM9.66,5.28,7.15,8.46l-.78-1a1,1,0,1,0-1.59,1.2L6.34,10.7a1,1,0,0,0,.78.4h0a1,1,0,0,0,.79-.38l3.31-4.2a1,1,0,0,0-.17-1.4A1,1,0,0,0,9.66,5.28ZM26.42,15H14.54a1,1,0,0,0,0,2H26.42a1,1,0,0,0,0-2Zm0,8H14.54a1,1,0,0,0,0,2H26.42a1,1,0,0,0,0-2ZM10.11,20.9H5.91a1,1,0,0,0-1,1v4.2a1,1,0,0,0,1,1h4.2a1,1,0,0,0,1-1V21.9A1,1,0,0,0,10.11,20.9Zm0-8H5.91a1,1,0,0,0-1,1v4.2a1,1,0,0,0,1,1h4.2a1,1,0,0,0,1-1V13.9A1,1,0,0,0,10.11,12.9Z"/></g><text x="0" y="47" fill="#000000" font-size="5px" font-weight="bold" font-family="'Helvetica Neue', Helvetica, Arial-Unicode, Arial, Sans-serif">Created by The Icon Z</text><text x="0" y="52" fill="#000000" font-size="5px" font-weight="bold" font-family="'Helvetica Neue', Helvetica, Arial-Unicode, Arial, Sans-serif">from the Noun Project</text></svg>